<?xml version="1.0" standalone="no"?>
<!DOCTYPE svg PUBLIC "-//W3C//DTD SVG 20010904//EN"
 "http://www.w3.org/TR/2001/REC-SVG-20010904/DTD/svg10.dtd">
<svg version="1.0" xmlns="http://www.w3.org/2000/svg"
 width="500.000000pt" height="500.000000pt" viewBox="0 0 500.000000 500.000000"
 preserveAspectRatio="xMidYMid meet">
<metadata>
Created by potrace 1.11, written by Peter Selinger 2001-2013
</metadata>
<g transform="translate(0.000000,500.000000) scale(0.100000,-0.100000)"
fill="#000000" stroke="none">
<path d="M2290 4854 c-353 -43 -606 -118 -876 -258 -673 -351 -1132 -992
-1251 -1746 -25 -162 -25 -538 0 -700 119 -754 578 -1395 1251 -1746 225 -117
478 -200 736 -241 161 -25 538 -25 698 0 853 135 1560 706 1861 1504 108 286
146 501 146 833 0 332 -38 547 -146 833 -299 793 -1008 1369 -1849 1502 -101
16 -488 29 -570 19z m-1056 -668 c20 -8 37 -25 45 -44 11 -27 19 -31 74 -41
221 -37 626 -75 938 -87 166 -7 167 -7 179 15 15 28 72 53 104 45 13 -3 34
-16 46 -29 17 -18 38 -25 89 -31 128 -13 289 -80 391 -162 122 -99 236 -241
325 -407 38 -70 63 -106 78 -111 58 -17 88 -76 63 -126 -14 -27 -14 -33 3 -67
65 -126 202 -231 383 -291 63 -21 69 -22 92 -6 37 24 90 20 123 -8 58 -50 22
-154 -56 -161 -38 -3 -63 -25 -150 -135 -138 -173 -261 -377 -316 -523 -29
-78 -29 -79 49 -184 57 -78 152 -172 234 -230 l62 -45 44 22 c41 20 47 20 81
6 50 -21 71 -71 51 -121 -8 -19 -26 -40 -40 -47 -23 -10 -26 -18 -26 -59 0
-121 -60 -322 -125 -419 -18 -27 -38 -65 -45 -85 -23 -69 -103 -89 -155 -38
-24 25 -27 33 -22 77 2 27 -2 69 -10 95 -8 25 -14 83 -15 128 0 70 3 90 29
145 35 75 103 145 179 185 30 15 54 31 54 35 0 4 -28 23 -61 43 -94 55 -167
114 -257 210 -69 73 -83 84 -90 68 -9 -24 -9 -268 1 -313 5 -27 14 -38 37 -47
57 -21 72 -109 26 -151 -33 -30 -68 -34 -111 -12 l-39 20 -55 -33 c-144 -84
-428 -417 -624 -729 l-54 -87 -21 28 -20 28 49 91 c63 118 138 237 207 331
117 159 314 338 439 399 29 15 53 29 53 32 0 3 -50 20 -111 38 -146 43 -281
93 -408 153 -57 27 -107 49 -111 49 -13 0 -137 -273 -168 -370 -40 -122 -52
-175 -62 -283 -11 -112 2 -242 34 -343 14 -43 24 -79 23 -80 -1 -1 -16 -9 -34
-18 -18 -9 -37 -25 -43 -36 -15 -27 -32 -17 -133 78 -157 150 -276 348 -360
601 -41 121 -48 135 -75 146 -64 28 -82 102 -36 149 15 14 33 26 41 26 40 0
67 198 60 459 -5 242 -22 380 -46 388 -56 17 -76 42 -83 103 -3 22 -14 29 -88
54 -168 56 -438 92 -592 80 -70 -6 -81 -10 -88 -30 -36 -94 -166 -82 -185 17
-6 29 -19 41 -87 84 -44 28 -110 80 -147 116 -154 151 -212 296 -210 529 0 52
-1 108 -2 124 -1 22 6 37 28 56 19 17 39 54 57 106 82 232 221 409 396 506 33
18 60 38 60 45 0 28 27 67 55 79 38 17 39 17 79 0z"/>
<path d="M1256 4034 c-29 -26 -64 -29 -121 -10 -48 16 -211 -145 -321 -316
-53 -82 -127 -228 -120 -235 3 -3 87 35 188 85 333 165 624 269 967 346 l145
33 -94 7 c-152 12 -510 77 -600 110 -8 3 -28 -6 -44 -20z"/>
<path d="M2623 3926 c-13 -14 -27 -26 -33 -26 -5 0 -10 -14 -10 -31 0 -42 -41
-124 -91 -182 -85 -98 -257 -197 -460 -264 -101 -33 -118 -42 -127 -65 -9 -26
-6 -30 56 -81 88 -71 202 -136 337 -191 119 -48 318 -109 418 -127 l62 -11 36
33 c20 19 43 54 53 78 25 65 83 147 130 186 90 73 210 102 349 83 43 -5 80 -8
82 -6 7 7 -116 181 -188 266 -159 188 -382 334 -547 357 -40 6 -48 4 -67 -19z"/>
<path d="M2395 3933 c-11 -2 -78 -15 -150 -29 -396 -77 -942 -240 -1270 -377
-256 -108 -235 -95 -235 -143 0 -35 -5 -47 -31 -68 -17 -14 -42 -26 -56 -26
l-26 0 5 -78 c11 -148 89 -294 238 -442 96 -96 160 -143 182 -135 12 5 16 32
21 123 13 235 71 387 197 513 100 101 201 144 365 156 74 5 95 10 118 30 33
27 77 30 116 7 26 -15 31 -14 141 36 282 126 440 234 491 332 25 48 24 54 -8
83 -27 23 -53 28 -98 18z"/>
<path d="M1560 3339 c-214 -56 -358 -243 -414 -538 -23 -121 -21 -151 11 -176
25 -20 29 -21 82 -8 86 20 264 27 364 14 99 -13 241 -58 332 -104 43 -22 72
-30 105 -28 25 0 51 -3 59 -8 9 -6 29 -4 55 6 68 24 216 52 311 59 160 12 372
-33 503 -105 l52 -29 -26 41 c-55 89 -144 299 -144 340 0 8 -11 19 -25 25 -14
7 -30 22 -36 35 -10 21 -22 25 -107 36 -358 46 -602 151 -782 335 -35 35 -68
62 -72 60 -16 -10 -77 17 -92 42 -21 30 -69 31 -176 3z"/>
<path d="M3203 3245 c-109 -30 -187 -88 -251 -186 l-40 -61 24 -35 c30 -45 30
-61 0 -105 l-24 -36 92 -178 c51 -99 117 -219 147 -268 55 -88 56 -88 99 -90
86 -5 121 -97 60 -158 -26 -26 -37 -29 -71 -26 -39 4 -43 1 -88 -52 -115 -133
-268 -357 -254 -370 22 -23 274 -143 403 -193 184 -71 188 -72 215 -57 23 12
23 14 9 59 -22 66 -29 254 -15 360 l12 89 -29 58 c-133 266 -166 662 -87 1049
23 114 23 115 4 152 -10 20 -19 43 -19 50 0 18 -118 16 -187 -2z"/>
<path d="M3471 3077 c-26 -156 -34 -344 -23 -496 15 -196 40 -314 99 -479 l15
-43 33 76 c67 154 172 307 329 478 81 88 93 107 89 130 -4 20 -11 27 -29 27
-44 0 -159 32 -219 60 -112 54 -194 137 -250 252 l-32 67 -12 -72z"/>
<path d="M2320 2460 c-41 -5 -96 -14 -121 -20 -41 -10 -47 -15 -57 -48 -13
-43 -13 -44 93 -177 118 -148 280 -291 478 -423 57 -38 101 -62 106 -56 4 5
40 52 79 104 39 52 112 142 163 199 90 101 92 105 94 156 l1 51 -60 41 c-114
77 -233 126 -386 158 -92 20 -289 27 -390 15z"/>
<path d="M2154 2173 c3 -16 14 -88 23 -161 15 -123 15 -144 1 -260 -9 -70 -28
-163 -42 -207 l-25 -80 20 -43 21 -42 -20 -41 -21 -41 50 -117 c100 -232 244
-463 370 -593 44 -46 75 -73 70 -62 -29 60 -62 185 -72 277 -26 222 35 479
175 737 28 52 52 98 54 101 2 4 -37 33 -85 64 -181 118 -376 299 -482 448 -19
26 -36 47 -39 47 -2 0 -2 -12 2 -27z"/>
<path d="M3973 1381 c-100 -78 -152 -168 -161 -276 -7 -90 2 -130 30 -130 13
-1 32 -4 44 -8 19 -7 24 1 52 85 29 88 72 238 86 303 4 17 9 38 12 48 8 27
-10 21 -63 -22z"/>
</g>
</svg>
