<?xml version="1.0" encoding="UTF-8" standalone="no"?>
<!DOCTYPE svg PUBLIC "-//W3C//DTD SVG 1.1//EN" "http://www.w3.org/Graphics/SVG/1.1/DTD/svg11.dtd">
<svg width="100%" height="100%" viewBox="0 0 500 500" version="1.1" xmlns="http://www.w3.org/2000/svg" xmlns:xlink="http://www.w3.org/1999/xlink" xml:space="preserve" xmlns:serif="http://www.serif.com/" style="fill-rule:evenodd;clip-rule:evenodd;stroke-linejoin:round;stroke-miterlimit:2;">
    <g id="Border" transform="matrix(0.98144,0,0,0.98144,-42.0407,-22.4119)">
        <path d="M297.564,23.166C227.36,23.166 163.76,51.663 117.712,97.712C71.663,143.76 43.166,207.36 43.166,277.564C43.166,347.767 71.663,411.367 117.712,457.416C163.76,503.465 227.36,531.961 297.564,531.961C367.767,531.961 431.367,503.465 477.416,457.416C523.465,411.367 551.961,347.767 551.961,277.564C551.961,207.36 523.465,143.76 477.416,97.712C431.367,51.663 367.767,23.166 297.564,23.166ZM297.564,36.834C363.995,36.834 424.176,63.802 467.751,107.377C511.325,150.951 538.293,211.133 538.293,277.564C538.293,343.995 511.325,404.176 467.751,447.751C424.176,491.325 363.995,518.293 297.564,518.293C231.133,518.293 170.951,491.325 127.377,447.751C83.802,404.176 56.834,343.995 56.834,277.564C56.834,211.133 83.802,150.951 127.377,107.377C170.951,63.802 231.133,36.834 297.564,36.834Z" style="fill:white;"/>
    </g>
    <g id="Connectors" transform="matrix(0.596551,0,0,0.596551,-45.3096,30.0341)">
        <path d="M279.39,96.086C279.39,96.086 258.646,97.734 233.127,118.149C225.4,124.33 217.274,132.294 209.378,142.547C206.736,145.978 204.162,149.702 201.673,153.712C198.316,159.12 195.09,165.037 192.057,171.505C185.789,184.872 180.306,200.472 175.639,218.623C174.879,221.029 176.216,223.601 178.623,224.361C181.029,225.121 183.601,223.784 184.361,221.377C188.039,211.765 191.991,203.065 195.935,194.991C200.446,185.758 205.106,177.541 209.727,170.09C213.232,164.436 216.758,159.285 220.182,154.504C224.069,149.077 227.823,144.144 231.573,139.749C237.635,132.646 243.477,126.848 249.026,122.197C266.76,107.33 280.61,103.914 280.61,103.914C282.77,103.577 284.25,101.55 283.914,99.39C283.577,97.23 281.55,95.75 279.39,96.086Z" style="fill:white;"/>
        <path d="M261.366,363.718C261.366,363.718 280.006,358.562 309.039,359.162C318.603,359.36 329.262,360.225 340.848,361.943C344.929,362.548 349.128,363.215 353.438,363.988C359.489,365.074 365.748,366.346 372.205,367.943C386.615,371.509 401.936,376.446 417.814,384.017C420.031,385.223 422.811,384.403 424.017,382.186C425.223,379.969 424.403,377.189 422.186,375.983C406.424,366.281 391.057,359.084 376.264,354.071C369.517,351.784 362.9,349.983 356.461,348.606C351.856,347.622 347.337,346.867 342.931,346.343C330.463,344.862 318.943,344.795 308.713,345.496C277.723,347.619 258.634,356.282 258.634,356.282C256.582,357.036 255.528,359.314 256.282,361.366C257.036,363.418 259.314,364.472 261.366,363.718Z" style="fill:white;"/>
        <path d="M416.264,381.314C416.264,381.314 423.346,407.252 425.826,442.786C426.372,450.617 426.719,458.902 426.829,467.502C426.897,472.868 426.894,478.35 426.775,483.921C426.538,495.019 425.808,506.435 423.991,517.927C422.235,529.03 419.739,540.171 415.79,551.093C414.804,553.417 415.891,556.103 418.215,557.089C420.539,558.074 423.225,556.987 424.21,554.663C432.358,537.846 437.532,520.191 440.311,502.674C441.47,495.367 442.18,488.098 442.497,480.955C442.715,476.043 442.735,471.19 442.555,466.435C442.069,453.591 440.507,441.454 438.491,430.548C432.774,399.62 423.736,378.686 423.736,378.686C423.011,376.624 420.748,375.538 418.686,376.264C416.624,376.989 415.538,379.252 416.264,381.314Z" style="fill:white;"/>
        <path d="M416.133,553.736C416.133,553.736 420.375,580.241 433.673,613.607C438.464,625.627 444.457,638.508 451.905,651.253C454.698,656.032 457.741,660.766 461.01,665.409C465.813,672.231 471.084,678.876 476.82,685.192C490.85,700.641 507.461,714.19 526.658,723.981C528.855,725.223 531.647,724.449 532.89,722.252C534.133,720.055 533.358,717.262 531.161,716.019C519.838,708.898 509.878,700.205 500.807,690.771C491.547,681.142 483.466,670.597 476.156,659.854C472.532,654.527 469.095,649.163 465.817,643.831C460.614,635.366 455.866,626.963 451.605,618.838C432.668,582.731 423.867,552.02 423.867,552.02C423.393,549.886 421.276,548.538 419.142,549.011C417.008,549.485 415.66,551.602 416.133,553.736Z" style="fill:white;"/>
        <path d="M677.246,563.094C676.161,563.316 674.257,564.057 672.414,564.667C664.218,567.377 650.705,574.772 633.419,590.263C626.507,596.458 619.063,603.958 611.047,612.92C605.581,619.031 599.92,625.86 593.914,633.357C588.685,639.883 583.196,646.905 577.534,654.549C570.136,664.535 562.395,675.501 554.417,687.67C547.461,698.279 540.239,709.676 532.952,722.138C531.773,724.369 529.003,725.223 526.772,724.043C524.541,722.863 523.687,720.094 524.867,717.862C531.159,704.624 537.346,692.394 543.599,681.133C550.84,668.093 558.032,656.346 565.167,645.793C570.682,637.636 576.144,630.183 581.575,623.443C587.868,615.635 594.11,608.776 600.105,602.667C608.983,593.621 617.38,586.271 625.128,580.295C645.205,564.812 660.855,558.378 670.035,556.228C675.293,554.996 678.831,555.114 680.41,555.664C682.287,556.317 683.258,557.407 683.645,558.449C684.5,560.461 683.562,562.789 681.551,563.645C680.387,564.14 679.118,564.034 678.09,563.465L678.135,563.341C678.207,563.052 677.952,562.981 677.479,563.051C677.67,563.209 677.874,563.348 678.09,563.465C677.929,563.859 677.588,563.568 677.246,563.094L677.479,563.051C677.128,562.765 676.824,562.414 676.589,562.006L676.715,562.241C676.8,562.387 676.885,562.533 676.97,562.678L677.246,563.094Z" style="fill:white;"/>
        <path d="M683.346,557.881C683.346,557.881 670.616,535.355 674.757,496.68C676.052,484.578 679.056,470.945 684.481,455.823C687.768,446.663 692.007,437.005 697.209,426.756C701.696,417.917 706.888,408.644 713.011,398.973C720.878,386.551 730.177,373.46 741.308,359.75C750.799,348.06 761.47,335.866 773.725,323.308C775.551,321.565 775.618,318.668 773.875,316.842C772.133,315.016 769.235,314.949 767.41,316.692C754.012,328.603 742.147,340.157 731.742,351.488C719.349,364.983 708.973,378.051 700.356,390.639C693.534,400.606 687.8,410.27 683.087,419.609C677.549,430.584 673.403,441.108 670.271,451.034C665.043,467.608 662.675,482.57 662.094,495.724C660.207,538.462 676.654,562.119 676.654,562.119C677.823,563.966 680.272,564.516 682.119,563.346C683.966,562.177 684.516,559.728 683.346,557.881Z" style="fill:white;"/>
        <path d="M770.318,316.047C770.318,316.047 754.68,315.627 735.375,309.444C725.421,306.256 714.607,301.374 704.279,294.131C701.366,292.089 698.463,289.905 695.622,287.502C691.602,284.101 687.68,280.328 684.016,275.974C675.989,266.435 668.964,254.524 664.46,238.989C663.902,236.528 661.451,234.982 658.989,235.54C656.528,236.098 654.982,238.549 655.54,241.011C658.493,258.911 664.569,273.259 672.533,284.753C676.362,290.279 680.681,295.092 685.28,299.282C688.533,302.246 691.951,304.88 695.476,307.177C704.937,313.342 714.95,317.446 724.468,320.055C749.551,326.929 770.817,323.953 770.817,323.953C772.999,323.815 774.658,321.932 774.52,319.75C774.382,317.569 772.499,315.909 770.318,316.047Z" style="fill:white;"/>
        <path d="M663.646,238.453C663.646,238.453 656.798,219.653 642.5,196.404C637.406,188.122 631.37,179.307 624.32,170.622C617.837,162.636 610.528,154.753 602.344,147.566C597.02,142.89 591.307,138.525 585.25,134.608C575.284,128.162 564.418,122.848 552.754,119.243C536.462,114.208 518.672,112.448 499.489,115.455C496.981,115.737 495.173,118.003 495.455,120.511C495.737,123.019 498.003,124.827 500.511,124.545C515.009,123.567 528.329,125.588 540.666,129.408C553.846,133.488 565.723,139.933 576.597,147.51C581.987,151.266 587.123,155.296 592.035,159.482C599.745,166.052 606.856,173.032 613.32,180.084C640.864,210.134 656.354,241.547 656.354,241.547C657.208,243.56 659.535,244.5 661.547,243.646C663.56,242.792 664.5,240.465 663.646,238.453Z" style="fill:white;"/>
        <path d="M278.92,103.811C278.92,103.811 303.759,112.433 344.181,119.884C357.407,122.322 372.294,124.612 388.517,126.265C394.308,126.855 400.275,127.313 406.391,127.649C415.068,128.126 424.045,128.366 433.275,128.362C454.515,128.353 477.015,127.071 500.308,124.563C502.826,124.393 504.733,122.21 504.563,119.692C504.393,117.174 502.21,115.267 499.692,115.437C476.676,116.071 454.558,115.216 433.723,113.915C424.698,113.351 415.932,112.685 407.444,112.008C401.464,111.531 395.626,111.047 389.943,110.591C374,109.313 359.314,107.89 346.211,106.365C306.167,101.707 281.08,96.189 281.08,96.189C278.977,95.593 276.786,96.817 276.189,98.92C275.593,101.023 276.817,103.214 278.92,103.811Z" style="fill:white;"/>
        <path d="M176.34,218.486C176.34,218.486 165.107,241.404 172.566,273.667C175.027,284.314 179.606,295.959 187.398,307.903C189.979,311.86 192.965,315.822 196.37,319.755C200.873,324.956 206.09,330.137 212.122,335.204C224.065,345.236 239.09,354.876 257.79,364.004C259.999,365.224 262.784,364.42 264.004,362.21C265.224,360.001 264.42,357.216 262.21,355.996C252.715,350.047 244.454,343.979 237.046,338.021C228.357,331.033 221.093,324.068 214.872,317.267C210.067,312.013 205.97,306.831 202.37,301.804C198.25,296.049 194.797,290.508 192.043,285.086C187.61,276.358 184.784,268.126 183.175,260.553C178.336,237.772 183.66,221.514 183.66,221.514C184.496,219.495 183.534,217.176 181.514,216.34C179.495,215.504 177.176,216.466 176.34,218.486Z" style="fill:white;"/>
        <path d="M263.946,359.663C263.946,359.663 263.2,335.335 270.084,307.352C272.068,299.284 274.721,290.938 278.177,282.739C281.413,275.064 285.447,267.593 290.379,260.636C294.145,255.325 298.44,250.328 303.428,245.834C310.383,239.567 318.606,234.237 328.586,230.483C342.254,225.341 358.9,222.826 379.426,224.537C381.93,224.854 384.22,223.078 384.537,220.574C384.854,218.07 383.078,215.78 380.574,215.463C352.62,210.762 330.564,213.807 313.2,221.549C304.118,225.598 296.327,231.005 289.675,237.287C285.048,241.656 281.001,246.494 277.475,251.626C273.061,258.053 269.446,264.948 266.539,272.039C262.107,282.852 259.227,294.075 257.474,304.777C252.56,334.785 256.054,360.337 256.054,360.337C256.24,362.515 258.159,364.132 260.337,363.946C262.515,363.76 264.132,361.841 263.946,359.663Z" style="fill:white;"/>
        <path d="M553.259,296.048C553.259,296.048 522.233,292.049 485.608,279.877C477.199,277.083 468.496,273.884 459.743,270.281C454.168,267.986 448.571,265.549 443.025,262.929C431.648,257.554 420.528,251.399 410.447,243.906C400.342,236.395 391.156,227.823 383.853,217.537C382.493,215.41 379.663,214.787 377.537,216.147C375.41,217.507 374.787,220.337 376.147,222.463C384.386,236.801 395.619,248.995 408.616,259.236C417.166,265.973 426.466,271.834 436.12,276.845C441.928,279.86 447.877,282.546 453.863,284.898C463.136,288.542 472.482,291.436 481.507,293.795C491.472,296.399 501.037,298.296 509.76,299.717C534.851,303.802 552.741,303.952 552.741,303.952C554.922,304.095 556.809,302.441 556.952,300.259C557.095,298.078 555.441,296.191 553.259,296.048Z" style="fill:white;"/>
        <path d="M623.129,417.572C623.129,417.572 606.284,393.253 570.842,375.549C558.742,369.505 544.456,364.287 528.027,361.244C522.302,360.183 516.303,359.441 510.055,359.053C501.51,358.522 492.492,358.625 483.029,359.512C463.414,361.351 441.922,366.444 418.497,375.681C416.113,376.51 414.851,379.119 415.681,381.503C416.51,383.887 419.119,385.149 421.503,384.319C444.422,377.379 465.186,374.487 483.915,373.939C492.695,373.683 501.003,373.995 508.886,374.685C514.594,375.185 520.07,375.894 525.331,376.749C540.447,379.206 553.712,383.206 565.152,387.979C599.023,402.11 616.871,422.428 616.871,422.428C618.211,424.155 620.702,424.469 622.428,423.129C624.155,421.789 624.469,419.298 623.129,417.572Z" style="fill:white;"/>
        <path d="M622.881,417.282C622.881,417.282 612.963,404.498 600.376,383.374C596.192,376.352 591.748,368.422 587.118,359.78C585.459,356.684 583.737,353.521 581.988,350.282C579.493,345.661 576.936,340.904 574.41,335.964C568.516,324.435 562.699,312.123 558.012,298.765C557.33,296.334 554.803,294.915 552.373,295.597C549.943,296.279 548.524,298.805 549.205,301.235C552.278,315.675 556.319,329.309 561.226,341.887C563.341,347.311 565.626,352.508 568.05,357.456C569.749,360.925 571.524,364.265 573.376,367.451C578.521,376.304 583.898,384.161 589.022,390.987C604.396,411.467 617.119,422.718 617.119,422.718C618.619,424.308 621.128,424.381 622.718,422.881C624.308,421.381 624.381,418.872 622.881,417.282Z" style="fill:white;"/>
        <path d="M661.368,236.283C661.368,236.283 645.701,229.149 625.275,228.563C618.095,228.356 610.38,229.073 602.591,231.11C597.709,232.386 592.824,234.255 588.068,236.791C584.484,238.703 580.971,241.012 577.637,243.79C573.133,247.541 568.867,252.07 565.09,257.547C557.984,267.85 552.364,281.321 549.169,298.901C548.563,301.351 550.059,303.832 552.509,304.439C554.959,305.046 557.441,303.549 558.048,301.099C561.967,288.808 567.078,279.19 572.639,271.377C576.639,265.759 581.001,261.288 585.49,257.56C588.799,254.813 592.209,252.547 595.639,250.589C605.645,244.877 616.098,242.266 625.684,241.426C643.9,239.829 658.632,243.717 658.632,243.717C660.684,244.472 662.962,243.419 663.717,241.368C664.472,239.316 663.419,237.038 661.368,236.283Z" style="fill:white;"/>
        <path d="M496.844,122.393C496.844,122.393 507.303,139.172 482.663,161.318C477.054,166.359 469.707,171.556 460.284,177.178C455.395,180.095 449.958,183.108 443.936,186.292C436.399,190.278 427.976,194.521 418.429,198.899C406.798,204.232 393.702,209.945 378.615,215.641C376.21,216.406 374.877,218.979 375.641,221.385C376.406,223.79 378.979,225.123 381.385,224.359C392.378,221.533 402.435,218.727 411.664,215.749C422.764,212.167 432.619,208.48 441.371,204.69C448.477,201.613 454.856,198.481 460.53,195.274C467.524,191.321 473.465,187.269 478.569,183.343C485.333,178.139 490.632,173.104 494.738,168.292C520.772,137.78 503.156,117.607 503.156,117.607C501.835,115.865 499.348,115.523 497.607,116.844C495.865,118.165 495.523,120.652 496.844,122.393Z" style="fill:white;"/>
        <path d="M680.794,556.12C680.794,556.12 640.619,546.251 590.597,521.959C572.819,513.325 553.817,502.862 534.819,490.432C527.806,485.843 520.77,481.027 513.789,475.938C503.659,468.552 493.646,460.609 483.985,451.978C460.989,431.432 439.929,407.151 424.078,377.929C422.935,375.679 420.18,374.78 417.929,375.922C415.679,377.065 414.78,379.82 415.922,382.071C430.774,413.394 451.086,440.119 474.126,462.548C483.819,471.984 494.002,480.639 504.448,488.527C511.624,493.945 518.931,498.996 526.3,503.664C546.107,516.212 566.16,526.311 584.905,534.388C637.223,556.929 679.206,563.88 679.206,563.88C681.348,564.319 683.442,562.935 683.88,560.794C684.319,558.652 682.935,556.558 680.794,556.12Z" style="fill:white;"/>
        <path d="M617.269,417.131C617.269,417.131 593.663,438.149 567.335,471.575C557.869,483.593 548.062,497.201 538.935,512.036C530.448,525.831 522.513,540.658 516.003,556.198C511.7,566.472 508.037,577.069 505.213,587.849C500.438,606.071 497.986,624.819 498.785,643.515C499.935,670.448 507.791,697.273 525.211,722.495C526.588,724.61 529.423,725.21 531.538,723.833C533.654,722.456 534.254,719.621 532.877,717.505C518.069,693.325 512.329,668.177 512.393,643.242C512.438,625.915 515.421,608.721 520.198,591.946C523.072,581.855 526.603,571.928 530.564,562.217C536.653,547.29 543.812,532.914 551.427,519.416C582.997,463.451 622.731,422.869 622.731,422.869C624.314,421.362 624.376,418.853 622.869,417.269C621.362,415.686 618.853,415.624 617.269,417.131Z" style="fill:white;"/>
        <path d="M723.372,646.222C723.372,646.222 716.838,632.865 714.93,615.577C713.915,606.382 714.483,596.121 718.308,585.915C719.616,582.425 721.247,578.92 723.393,575.449C726.293,570.759 729.972,566.093 734.876,561.622C741.619,555.475 750.213,549.497 761.615,544.279C763.977,543.387 765.17,540.746 764.279,538.385C763.387,536.023 760.746,534.83 758.385,535.721C741.639,540.822 729.353,547.72 720.423,555.627C715.524,559.964 711.698,564.675 708.713,569.514C706.475,573.142 704.76,576.888 703.477,580.65C701.775,585.638 700.794,590.663 700.435,595.599C699.872,603.363 700.635,610.876 702.241,617.724C706.699,636.734 716.628,650.379 716.628,650.379C717.776,652.239 720.218,652.819 722.079,651.672C723.939,650.525 724.519,648.082 723.372,646.222Z" style="fill:white;"/>
        <path d="M721.862,651.796C721.862,651.796 731.53,647.924 743.181,629.389C746.188,624.605 749.269,618.803 752.25,611.737C754.005,607.576 755.735,602.983 757.232,597.875C758.513,593.506 759.61,588.759 760.563,583.643C761.788,577.07 762.754,569.912 763.448,562.075C764.043,555.344 764.356,548.201 764.547,540.487C764.816,537.977 762.997,535.722 760.487,535.453C757.977,535.184 755.722,537.003 755.453,539.513C753.468,550.133 751.142,559.562 748.975,568.198C747.27,574.99 745.521,581.165 743.913,586.877C742.679,591.257 741.532,595.346 740.414,599.156C738.38,606.085 736.478,612.062 734.507,617.198C726.239,638.734 718.138,644.804 718.138,644.804C716.208,645.832 715.477,648.233 716.504,650.162C717.532,652.092 719.933,652.824 721.862,651.796L721.862,651.796Z" style="fill:white;"/>
        <path d="M182.119,223.346C182.119,223.346 214.665,204.524 273.804,182.992C292.44,176.207 313.699,169.163 337.388,162.164C345.677,159.715 354.247,157.227 363.103,154.741C375.491,151.263 388.429,147.79 401.929,144.427C432.082,136.915 464.954,129.875 500.559,124.539C503.064,124.23 504.848,121.946 504.539,119.441C504.23,116.936 501.946,115.152 499.441,115.461C463.181,118.965 429.523,123.997 398.725,130.332C384.883,133.18 371.628,136.286 358.989,139.614C349.943,141.995 341.215,144.494 332.822,147.103C308.838,154.561 287.477,162.532 268.848,170.252C209.578,194.815 177.881,216.654 177.881,216.654C176.034,217.823 175.484,220.272 176.654,222.119C177.823,223.966 180.272,224.516 182.119,223.346Z" style="fill:white;"/>
        <path d="M656.216,238.83C656.216,238.83 640.333,284.589 639.324,342.516C638.935,364.866 640.796,389.014 646.623,412.921C648.86,422.1 651.733,431.234 655.294,440.198C660.509,453.323 667.176,466.11 675.546,478.178C693.996,504.781 720.573,527.996 758.084,544.153C760.376,545.21 763.095,544.208 764.153,541.916C765.21,539.624 764.208,536.905 761.916,535.847C734.977,522.528 714.659,505.43 699.214,486.359C687.65,472.082 678.966,456.635 672.354,440.712C668.21,430.735 664.897,420.575 662.225,410.382C658.032,394.385 655.488,378.308 654.128,362.73C648.436,297.554 663.784,241.17 663.784,241.17C664.43,239.082 663.259,236.862 661.17,236.216C659.082,235.57 656.862,236.741 656.216,238.83Z" style="fill:white;"/>
    </g>
    <g id="Nodes" transform="matrix(0.596551,0,0,0.596551,-72.7696,18.2187)">
        <g transform="matrix(0.812069,0,0,0.812103,217.562,-42.6143)">
            <circle cx="128.943" cy="200" r="20" style="fill:rgb(209,182,228);"/>
        </g>
        <g transform="matrix(0.812069,0,0,0.812103,125.937,78.032)">
            <circle cx="128.943" cy="200" r="20" style="fill:rgb(227,232,41);"/>
        </g>
        <g transform="matrix(0.812069,0,0,0.812103,201.321,217.386)">
            <circle cx="128.943" cy="200" r="20" style="fill:rgb(255,223,180);"/>
        </g>
        <g transform="matrix(0.812069,0,0,0.812103,701.321,393.628)">
            <circle cx="128.943" cy="200" r="20" style="fill:rgb(185,239,163);"/>
        </g>
        <g transform="matrix(0.812069,0,0,0.812103,361.321,413.628)">
            <circle cx="128.943" cy="200" r="20" style="fill:rgb(43,201,175);"/>
        </g>
        <g transform="matrix(0.812069,0,0,0.812103,601.321,101.144)">
            <circle cx="128.943" cy="200" r="20" style="fill:rgb(255,114,118);"/>
        </g>
        <g transform="matrix(0.812069,0,0,0.812103,445.079,-22.6143)">
            <circle cx="128.943" cy="200" r="20" style="fill:rgb(255,143,108);"/>
        </g>
        <g transform="matrix(0.812069,0,0,0.812103,361.321,241.144)">
            <circle cx="128.943" cy="200" r="20" style="fill:rgb(68,214,44);"/>
        </g>
        <g transform="matrix(0.812069,0,0,0.812103,705.079,181.144)">
            <circle cx="128.943" cy="200" r="20" style="fill:rgb(222,231,205);"/>
        </g>
        <g transform="matrix(0.812069,0,0,0.812103,465.079,573.628)">
            <circle cx="128.943" cy="200" r="20" style="fill:rgb(138,105,212);"/>
        </g>
        <g transform="matrix(0.812103,0,0,0.812103,497.558,157.386)">
            <circle cx="128.943" cy="200" r="20" style="fill:rgb(0,175,219);"/>
        </g>
        <g transform="matrix(0.812069,0,0,0.812103,321.321,77.3857)">
            <circle cx="128.943" cy="200" r="20" style="fill:rgb(250,201,209);"/>
        </g>
        <g transform="matrix(0.812069,0,0,0.812103,661.321,497.386)">
            <circle cx="128.943" cy="200" r="20" style="fill:rgb(185,224,221);"/>
        </g>
        <g transform="matrix(0.812069,0,0,0.812103,561.321,277.386)">
            <circle cx="128.943" cy="200" r="20" style="fill:rgb(247,244,162);"/>
        </g>
        <g transform="matrix(0.812069,0,0,0.812103,617.562,417.386)">
            <circle cx="128.943" cy="200" r="20" style="fill:rgb(227,232,41);"/>
        </g>
    </g>
</svg>
