<?xml version="1.0" encoding="UTF-8" standalone="no"?>
<!DOCTYPE svg PUBLIC "-//W3C//DTD SVG 1.1//EN" "http://www.w3.org/Graphics/SVG/1.1/DTD/svg11.dtd">
<svg width="100%" height="100%" viewBox="0 0 500 500" version="1.1" xmlns="http://www.w3.org/2000/svg" xmlns:xlink="http://www.w3.org/1999/xlink" xml:space="preserve" xmlns:serif="http://www.serif.com/" style="fill-rule:evenodd;clip-rule:evenodd;stroke-linejoin:round;stroke-miterlimit:2;">
    <g id="Connectors" transform="matrix(0.739912,0,0,0.739912,-97.131,-48.9716)">
        <path d="M279.716,98.175C279.716,98.175 259.295,99.263 233.737,118.846C225.904,124.848 217.653,132.623 209.659,142.757C206.981,146.151 204.368,149.844 201.906,153.862C198.583,159.286 195.494,165.263 192.602,171.79C190.023,177.611 187.64,183.813 185.477,190.53C182.618,199.407 180.236,208.932 178.089,219.396C177.756,220.451 178.342,221.578 179.396,221.911C180.451,222.244 181.578,221.658 181.911,220.604C186.065,211.033 190.472,202.526 194.768,194.493C199.647,185.369 204.568,177.292 209.373,169.885C212.241,165.463 215.08,161.339 217.787,157.396C222.396,150.683 226.751,144.635 231.129,139.344C237.136,132.084 242.844,126.098 248.335,121.278C266.193,105.602 280.284,101.825 280.284,101.825C281.292,101.668 281.982,100.723 281.825,99.716C281.668,98.708 280.723,98.018 279.716,98.175Z"/>
        <path d="M260.637,361.734C260.637,361.734 275.495,357.951 299.336,357.992C307.047,358.005 315.628,358.511 325.039,359.476C332.21,360.212 339.794,361.384 347.826,362.742C352.706,363.567 357.749,364.398 362.944,365.397C371.964,367.131 381.355,369.231 391.182,372.124C400.206,374.781 409.464,377.751 419.042,381.76C420.014,382.289 421.232,381.929 421.76,380.958C422.289,379.986 421.929,378.768 420.958,378.24C412.133,372.199 403.53,367.044 394.861,362.716C388.529,359.556 382.288,356.907 376.091,354.66C369.398,352.234 362.835,350.291 356.408,348.878C351.814,347.868 347.29,347.163 342.885,346.69C330.42,345.354 318.933,345.513 308.736,346.422C278.019,349.163 259.363,358.266 259.363,358.266C258.406,358.618 257.915,359.68 258.266,360.637C258.618,361.594 259.68,362.085 260.637,361.734Z"/>
        <path d="M418.258,380.613C418.258,380.613 423.438,401.893 425.874,432.339C426.72,442.904 427.172,454.525 427.172,466.809C427.172,471.299 427.141,475.871 427.104,480.511C427.051,487.244 426.966,494.092 426.567,501.047C426.08,509.532 425.328,518.068 423.927,526.694C422.543,535.212 420.798,543.658 418.155,552.096C417.723,553.114 418.199,554.291 419.218,554.723C420.236,555.155 421.413,554.679 421.845,553.66C427.11,543.947 431.31,534.014 434.531,523.778C436.742,516.749 438.432,509.69 439.701,502.602C441.003,495.325 441.865,488.084 442.22,480.947C442.464,476.042 442.436,471.191 442.206,466.444C441.582,453.616 439.799,441.534 437.574,430.679C431.279,399.959 421.742,379.387 421.742,379.387C421.404,378.426 420.349,377.92 419.387,378.258C418.426,378.596 417.92,379.651 418.258,380.613Z"/>
        <path d="M418.197,553.278C418.197,553.278 421.818,579.748 434.521,613.233C439.106,625.319 444.882,638.272 452.205,651.072C454.95,655.872 457.952,660.63 461.239,665.253C466.068,672.046 471.451,678.583 477.289,684.795C483.043,690.918 489.214,696.679 495.875,701.964C505.679,709.742 516.326,716.394 527.923,721.744C528.886,722.289 530.109,721.949 530.654,720.987C531.198,720.024 530.859,718.8 529.896,718.256C516.366,709.119 505.045,697.756 494.804,685.572C487.906,677.364 481.75,668.714 475.905,660.031C471.381,653.311 467.048,646.602 463.003,639.939C458.708,632.865 454.618,625.943 450.951,619.154C447.321,612.431 444.016,605.947 441.045,599.781C428.044,572.801 421.803,552.478 421.803,552.478C421.582,551.483 420.595,550.855 419.6,551.075C418.605,551.296 417.976,552.283 418.197,553.278Z"/>
        <path d="M678.393,560.937C677.423,560.806 674.586,561.847 671.886,562.794C663.609,565.699 650.046,573.416 632.734,589.439C625.892,595.772 618.565,603.422 610.609,612.509C604.209,619.819 597.563,628.141 590.36,637.366C586.177,642.722 581.765,648.337 577.2,654.313C569.633,664.221 561.653,675.02 553.33,687.014C546.052,697.503 538.408,708.634 530.681,720.937C530.164,721.914 528.951,722.289 527.973,721.772C526.995,721.255 526.621,720.041 527.138,719.063C533.014,705.618 538.725,693.224 544.685,681.789C551.582,668.559 558.519,656.689 565.501,646.029C569.756,639.533 574.029,633.505 578.357,627.979C585.864,618.394 593.389,610.216 600.543,603.078C609.499,594.145 617.986,586.957 625.814,581.119C645.905,566.133 661.45,560.061 670.563,558.1C675.274,557.086 678.415,557.158 679.814,557.674C680.896,558.073 681.486,558.668 681.699,559.277C682.098,560.215 681.661,561.3 680.723,561.699C680.025,561.996 679.246,561.83 678.728,561.339L678.731,561.33C678.783,561.101 678.664,560.978 678.413,560.941C678.37,560.872 678.333,560.799 678.301,560.723L678.393,560.937L678.413,560.941C678.501,561.09 678.607,561.223 678.728,561.339C678.67,561.576 678.508,561.209 678.393,560.937Z"/>
        <path d="M681.56,559.012C681.56,559.012 668.858,535.935 673.611,496.593C675.079,484.436 678.316,470.795 683.912,455.631C687.904,444.812 693.242,433.326 699.899,420.965C703.726,413.859 707.927,406.444 712.67,398.749C720.411,386.189 729.482,372.918 740.347,358.92C749.638,346.95 759.955,334.407 771.951,321.45C772.751,320.686 772.781,319.416 772.017,318.616C771.253,317.816 769.984,317.787 769.184,318.55C755.493,330.092 743.341,341.23 732.702,352.318C720.03,365.526 709.459,378.393 700.698,390.864C695.234,398.641 690.494,406.273 686.48,413.748C679.413,426.906 674.426,439.494 670.841,451.226C665.784,467.779 663.641,482.704 663.241,495.81C661.953,537.939 678.44,560.988 678.44,560.988C678.985,561.849 680.127,562.106 680.988,561.56C681.849,561.015 682.106,559.873 681.56,559.012Z"/>
        <path d="M770.451,318.157C770.451,318.157 754.582,317.386 735.094,310.51C728.868,308.314 722.359,305.439 715.773,301.814C711.845,299.652 707.961,297.168 704.083,294.422C701.17,292.358 698.306,290.103 695.44,287.71C691.369,284.311 687.326,280.639 683.528,276.347C679.11,271.355 674.894,265.842 671.143,259.315C667.734,253.381 664.562,246.973 661.954,239.557C661.71,238.478 660.636,237.801 659.557,238.046C658.478,238.29 657.801,239.364 658.046,240.443C659.157,250.541 661.279,259.421 664.336,267.475C666.71,273.731 669.674,279.3 673.021,284.38C676.709,289.977 680.904,294.867 685.462,299.074C688.686,302.049 692.129,304.642 695.672,306.887C705.174,312.908 715.218,316.793 724.757,319.174C749.766,325.417 770.684,321.843 770.684,321.843C771.701,321.779 772.475,320.901 772.411,319.884C772.346,318.866 771.468,318.093 770.451,318.157Z"/>
        <path d="M661.7,239.279C661.7,239.279 654.024,216.76 637.397,190.394C633.399,184.054 628.867,177.547 623.769,171.096C617.404,163.039 610.237,155.058 602.119,147.826C596.838,143.121 591.156,138.725 585.079,134.863C575.094,128.516 564.169,123.403 552.455,120.1C536.22,115.522 518.646,114.423 499.776,118.009C498.677,118.132 497.885,119.125 498.009,120.224C498.132,121.323 499.125,122.115 500.224,121.991C518.145,121.343 534.042,125.158 548.57,131.238C558.737,135.493 568.006,141.088 576.768,147.255C583.523,152.009 589.95,157.092 596,162.423C602.349,168.018 608.369,173.745 613.871,179.61C619.242,185.335 624.187,191.054 628.679,196.625C647.714,220.24 658.3,240.721 658.3,240.721C658.698,241.66 659.783,242.098 660.721,241.7C661.66,241.302 662.098,240.217 661.7,239.279Z"/>
        <path d="M279.496,101.777C279.496,101.777 304.068,110.906 344.319,118.968C357.505,121.609 372.342,124.124 388.548,125.916C394.332,126.555 400.294,127.063 406.409,127.373C415.09,127.813 424.064,127.897 433.294,127.748C442.055,127.606 450.992,127.195 460.145,126.514C473.203,125.543 486.488,123.972 500.135,121.999C501.238,121.925 502.074,120.969 501.999,119.865C501.925,118.762 500.969,117.926 499.865,118.001C480.565,117.909 462.043,116.642 444.239,115.349C431.472,114.421 419.199,113.271 407.426,112.285C398.959,111.575 390.765,111.029 382.901,110.426C369.608,109.405 357.276,108.395 346.073,107.282C305.754,103.275 280.504,98.223 280.504,98.223C279.523,97.945 278.501,98.516 278.223,99.496C277.945,100.477 278.516,101.499 279.496,101.777Z"/>
        <path d="M178.294,219.294C178.294,219.294 168.991,237.286 171.957,264.247C172.87,272.549 175.049,281.618 179.018,291.213C181.249,296.607 184.097,302.134 187.688,307.707C190.242,311.67 193.164,315.671 196.582,319.577C201.106,324.746 206.413,329.811 212.535,334.75C217.852,339.038 223.736,343.203 230.348,347.209C238.83,352.348 248.304,357.113 259.031,361.754C260,362.289 261.22,361.937 261.754,360.969C262.289,360 261.937,358.78 260.969,358.246C251.595,351.825 243.6,345.34 236.298,339.046C227.788,331.712 220.715,324.521 214.578,317.551C210.853,313.32 207.546,309.17 204.484,305.166C199.221,298.281 194.866,291.744 191.499,285.342C186.89,276.578 183.829,268.361 182.04,260.737C176.578,237.452 181.706,220.706 181.706,220.706C182.096,219.764 181.648,218.683 180.706,218.294C179.764,217.904 178.683,218.352 178.294,219.294Z"/>
        <path d="M261.84,359.843C261.84,359.843 261.581,335.305 269.003,307.132C271.542,297.494 275.025,287.489 279.718,277.828C282.647,271.799 286.101,265.966 290.092,260.436C293.165,256.178 296.597,252.147 300.388,248.349C305.8,242.927 311.935,237.999 319.239,234.002C327.461,229.502 336.888,225.977 348.038,223.976C357.481,222.282 367.924,221.438 379.749,221.988C380.846,222.127 381.849,221.349 381.988,220.251C382.127,219.154 381.349,218.151 380.251,218.012C365.286,214.92 352.085,214.157 340.265,215.316C330.295,216.294 321.42,218.708 313.468,222.101C304.361,225.987 296.519,231.26 289.868,237.486C285.237,241.82 281.236,246.683 277.762,251.827C273.414,258.266 269.89,265.176 267.089,272.281C262.821,283.109 260.119,294.311 258.555,304.998C254.18,334.89 258.16,360.157 258.16,360.157C258.247,361.173 259.142,361.927 260.157,361.84C261.173,361.753 261.927,360.858 261.84,359.843Z"/>
        <path d="M553.121,298.157C553.121,298.157 532.638,295.101 505.302,286.983C498.974,285.104 492.311,282.967 485.403,280.574C478.366,278.137 471.173,275.324 463.853,272.361C456.883,269.539 449.872,266.459 442.889,263.204C433.719,258.93 424.649,254.359 416.084,248.959C403.024,240.727 391.04,231.192 381.688,218.921C381.093,217.989 379.852,217.716 378.921,218.312C377.989,218.907 377.716,220.148 378.312,221.079C385.972,235.561 396.552,248.011 409.149,258.502C417.499,265.456 426.663,271.485 436.257,276.57C442.031,279.631 447.995,282.276 453.992,284.579C463.283,288.147 472.663,290.871 481.712,293.098C489.056,294.906 496.163,296.32 502.903,297.428C531.651,302.153 552.879,301.843 552.879,301.843C553.896,301.91 554.776,301.138 554.843,300.121C554.91,299.104 554.138,298.224 553.121,298.157Z"/>
        <path d="M621.459,418.868C621.459,418.868 605.279,394.476 570.456,376.391C558.488,370.176 544.322,364.767 527.967,361.589C522.261,360.48 516.273,359.689 510.035,359.329C501.499,358.836 492.5,359.088 483.067,360.125C474.617,361.055 465.859,362.615 456.75,364.954C444.79,368.025 432.408,372.386 419.342,378.107C418.297,378.471 417.744,379.614 418.107,380.658C418.471,381.703 419.614,382.256 420.658,381.893C431.722,379.003 442.197,377.09 452.244,375.679C463.429,374.109 473.919,373.446 483.877,373.326C492.689,373.22 501.001,373.682 508.907,374.409C514.623,374.934 520.116,375.572 525.391,376.404C532.571,377.538 539.343,378.937 545.717,380.638C556.757,383.585 566.569,387.253 575.168,391.288C603.534,404.595 618.541,421.132 618.541,421.132C619.166,421.938 620.327,422.084 621.132,421.459C621.938,420.834 622.084,419.673 621.459,418.868Z"/>
        <path d="M621.343,418.733C621.343,418.733 611.761,405.591 599.606,383.89C596.191,377.792 592.632,371.048 588.81,363.79C586.542,359.484 584.249,354.981 581.742,350.409C578.224,343.994 574.437,337.433 570.729,330.49C565.469,320.639 560.085,310.555 555.538,299.459C555.239,298.394 554.132,297.772 553.067,298.071C552.002,298.369 551.38,299.476 551.679,300.541C552.997,309.163 554.607,317.374 556.729,325.417C558.209,331.029 559.894,336.401 561.786,341.636C563.765,347.114 565.904,352.362 568.296,357.33C569.97,360.807 571.788,364.124 573.682,367.281C578.948,376.063 584.5,383.772 589.791,390.471C605.638,410.532 618.657,421.267 618.657,421.267C619.356,422.009 620.526,422.043 621.267,421.343C622.009,420.644 622.043,419.474 621.343,418.733Z"/>
        <path d="M660.638,238.267C660.638,238.267 645.459,230.772 625.31,229.665C618.187,229.273 610.541,229.824 602.765,231.685C597.883,232.853 592.999,234.632 588.237,237.098C584.645,238.958 581.111,241.218 577.81,244.006C573.349,247.772 569.203,252.374 565.578,257.92C562.496,262.634 559.733,267.925 557.508,274.041C554.804,281.476 552.859,289.819 551.663,299.518C551.398,300.592 552.053,301.679 553.127,301.945C554.201,302.211 555.288,301.555 555.554,300.482C558.252,293.423 561.314,287.42 564.48,281.92C568.104,275.624 572.039,270.479 576.079,265.96C579.678,261.934 583.468,258.687 587.259,255.813C589.985,253.746 592.702,251.889 595.471,250.282C599.215,248.108 602.963,246.288 606.766,244.885C613.203,242.509 619.569,241.047 625.649,240.323C644.245,238.11 659.362,241.733 659.362,241.733C660.319,242.085 661.381,241.594 661.733,240.638C662.085,239.681 661.594,238.619 660.638,238.267Z"/>
        <path d="M498.529,121.116C498.529,121.116 509.744,139.154 483.312,161.979C477.563,166.943 470.074,172.004 460.513,177.547C455.579,180.407 450.075,183.313 444.062,186.539C436.523,190.583 428.199,195.023 418.754,199.697C407.185,205.421 394.377,211.756 379.393,218.09C378.339,218.425 377.755,219.553 378.09,220.607C378.425,221.661 379.553,222.245 380.607,221.91C391.743,219.535 401.86,217.227 411.217,214.561C422.444,211.362 432.366,207.945 441.198,204.32C446.816,202.014 451.964,199.612 456.632,197.086C465.232,192.431 472.305,187.549 478.217,182.856C487.655,175.363 494.112,168.212 498.485,161.65C516.103,135.213 501.471,118.884 501.471,118.884C500.856,118.072 499.696,117.913 498.884,118.529C498.072,119.144 497.913,120.304 498.529,121.116Z"/>
        <path d="M680.37,558.191C680.37,558.191 640.207,547.732 590.211,522.801C572.493,513.966 553.589,503.289 534.63,490.726C527.638,486.093 520.626,481.233 513.624,476.16C503.455,468.792 493.341,460.962 483.566,452.427C471.702,442.069 460.29,430.845 449.753,418.426C439.516,406.361 430.023,393.386 421.787,379.093C421.286,378.107 420.079,377.712 419.093,378.213C418.107,378.714 417.712,379.921 418.213,380.907C426.488,399.538 436.645,416.57 448.327,432.085C456.436,442.855 465.238,452.843 474.545,462.099C484.128,471.629 494.2,480.394 504.613,488.305C511.768,493.74 519.099,498.749 526.489,503.37C546.349,515.79 566.481,525.674 585.291,533.545C637.692,555.474 679.63,561.809 679.63,561.809C680.628,562.014 681.605,561.369 681.809,560.37C682.014,559.372 681.369,558.395 680.37,558.191Z"/>
        <path d="M618.727,418.662C618.727,418.662 590.224,443.38 560.708,481.992C553.549,491.357 546.37,501.54 539.56,512.406C530.969,526.112 522.892,540.838 516.321,556.329C511.976,566.571 508.276,577.15 505.509,587.93C500.837,606.127 498.602,624.866 499.692,643.497C501.251,670.138 509.613,696.482 527.364,721.093C527.967,722.02 529.21,722.283 530.137,721.68C531.064,721.076 531.327,719.834 530.723,718.907C516.213,694.087 511.023,668.54 511.486,643.26C511.805,625.867 515.045,608.69 519.902,591.865C523.549,579.229 528.09,566.811 533.285,554.773C538.623,542.405 544.505,530.402 550.802,519.046C556.855,508.129 563.17,497.787 569.454,488.185C595.663,448.138 621.273,421.338 621.273,421.338C622.012,420.635 622.04,419.465 621.338,418.727C620.635,417.988 619.465,417.96 618.727,418.662Z"/>
        <path d="M721.572,647.331C721.572,647.331 715.229,633.539 713.842,615.761C713.384,609.885 713.611,603.637 714.739,597.213C715.405,593.419 716.51,589.628 717.978,585.798C719.061,582.974 720.409,580.171 721.98,577.333C724.157,573.396 726.721,569.41 730.118,565.503C733.905,561.148 738.337,556.798 743.975,552.584C748.853,548.939 754.234,545.309 760.708,541.875C761.742,541.484 762.265,540.327 761.875,539.292C761.484,538.258 760.327,537.735 759.292,538.125C750.055,540.351 742.269,543.116 735.47,546.491C729.778,549.317 725.003,552.577 720.853,556.065C715.867,560.256 711.957,564.859 708.951,569.655C706.699,573.25 705.037,577.008 703.807,580.767C702.178,585.747 701.283,590.753 701.033,595.667C700.64,603.381 701.55,610.79 703.328,617.54C708.237,636.183 718.428,649.269 718.428,649.269C718.963,650.137 720.101,650.407 720.969,649.872C721.837,649.337 722.107,648.199 721.572,647.331Z"/>
        <path d="M720.868,649.93C720.868,649.93 732.685,645.798 746.083,622.524C749.561,616.483 753.073,609.136 756.159,600.108C757.162,597.175 758.076,594.048 758.824,590.723C759.828,586.261 760.575,581.479 761.158,576.344C761.678,571.759 762.027,566.993 762.194,561.874C762.417,555.06 762.27,547.994 761.993,540.213C762.11,539.114 761.313,538.125 760.213,538.007C759.114,537.89 758.125,538.687 758.007,539.787C755.381,550.452 752.401,559.678 749.822,568.355C747.815,575.105 745.849,581.216 744.181,586.946C742.907,591.323 741.878,595.452 740.827,599.289C738.906,606.307 737.184,612.355 735.348,617.585C727.394,640.243 719.132,646.67 719.132,646.67C718.232,647.149 717.891,648.269 718.37,649.168C718.849,650.068 719.969,650.409 720.868,649.93Z"/>
        <path d="M180.988,221.56C180.988,221.56 206.927,206.911 254.56,188.993C269.411,183.406 286.355,177.56 305.251,171.539C319.555,166.98 334.993,162.458 351.44,157.765C361.392,154.926 371.691,151.968 382.369,149.027C400.786,143.954 420.267,138.908 440.898,134.186C459.802,129.859 479.511,125.605 500.245,121.989C501.343,121.854 502.124,120.853 501.989,119.755C501.854,118.657 500.853,117.876 499.755,118.011C478.616,119.545 458.407,121.562 439.065,124.253C425.161,126.186 411.768,128.415 398.862,130.931C384.992,133.635 371.708,136.59 359.062,139.881C350.012,142.236 341.299,144.782 332.924,147.438C308.991,155.028 287.726,163.21 269.184,171.115C210.305,196.218 179.012,218.44 179.012,218.44C178.151,218.985 177.894,220.127 178.44,220.988C178.985,221.849 180.127,222.106 180.988,221.56Z"/>
        <path d="M658.236,239.454C658.236,239.454 641.826,284.818 640.25,342.512C639.641,364.817 641.277,388.94 646.962,412.836C649.146,422.014 651.971,431.155 655.552,440.098C660.793,453.183 667.583,465.879 676.057,477.838C684.076,489.154 693.597,499.807 704.889,509.458C719.81,522.21 737.721,533.172 759.16,541.82C760.165,542.283 761.356,541.844 761.82,540.84C762.283,539.835 761.844,538.644 760.84,538.18C733.887,524.177 713.834,506.459 698.521,486.946C687.134,472.434 678.653,456.842 672.071,440.833C666.907,428.272 662.916,415.48 659.933,402.667C656.805,389.238 654.639,375.848 653.403,362.779C652.205,350.106 651.758,337.788 651.84,326.124C652.184,277.498 661.764,240.546 661.764,240.546C662.065,239.572 661.519,238.537 660.546,238.236C659.572,237.935 658.537,238.481 658.236,239.454Z"/>
    </g>
    <g id="Nodes" transform="matrix(0.739912,0,0,0.739912,-131.19,-63.6265)">
        <g transform="matrix(0.812069,0,0,0.812103,217.562,-42.6143)">
            <circle cx="128.943" cy="200" r="20" style="fill:rgb(209,182,228);"/>
        </g>
        <g transform="matrix(0.812069,0,0,0.812103,125.937,78.032)">
            <circle cx="128.943" cy="200" r="20" style="fill:rgb(227,232,41);"/>
        </g>
        <g transform="matrix(0.812069,0,0,0.812103,201.321,217.386)">
            <circle cx="128.943" cy="200" r="20" style="fill:rgb(255,223,180);"/>
        </g>
        <g transform="matrix(0.812069,0,0,0.812103,701.321,393.628)">
            <circle cx="128.943" cy="200" r="20" style="fill:rgb(185,239,163);"/>
        </g>
        <g transform="matrix(0.812069,0,0,0.812103,361.321,413.628)">
            <circle cx="128.943" cy="200" r="20" style="fill:rgb(43,201,175);"/>
        </g>
        <g transform="matrix(0.812069,0,0,0.812103,601.321,101.144)">
            <circle cx="128.943" cy="200" r="20" style="fill:rgb(255,114,118);"/>
        </g>
        <g transform="matrix(0.812069,0,0,0.812103,445.079,-22.6143)">
            <circle cx="128.943" cy="200" r="20" style="fill:rgb(255,143,108);"/>
        </g>
        <g transform="matrix(0.812069,0,0,0.812103,361.321,241.144)">
            <circle cx="128.943" cy="200" r="20" style="fill:rgb(68,214,44);"/>
        </g>
        <g transform="matrix(0.812069,0,0,0.812103,705.079,181.144)">
            <circle cx="128.943" cy="200" r="20" style="fill:rgb(222,231,205);"/>
        </g>
        <g transform="matrix(0.812069,0,0,0.812103,465.079,573.628)">
            <circle cx="128.943" cy="200" r="20" style="fill:rgb(138,105,212);"/>
        </g>
        <g transform="matrix(0.812103,0,0,0.812103,497.558,157.386)">
            <circle cx="128.943" cy="200" r="20" style="fill:rgb(0,175,219);"/>
        </g>
        <g transform="matrix(0.812069,0,0,0.812103,321.321,77.3857)">
            <circle cx="128.943" cy="200" r="20" style="fill:rgb(250,201,209);"/>
        </g>
        <g transform="matrix(0.812069,0,0,0.812103,661.321,497.386)">
            <circle cx="128.943" cy="200" r="20" style="fill:rgb(185,224,221);"/>
        </g>
        <g transform="matrix(0.812069,0,0,0.812103,561.321,277.386)">
            <circle cx="128.943" cy="200" r="20" style="fill:rgb(247,244,162);"/>
        </g>
        <g transform="matrix(0.812069,0,0,0.812103,617.562,417.386)">
            <circle cx="128.943" cy="200" r="20" style="fill:rgb(227,232,41);"/>
        </g>
    </g>
</svg>
